# xmcd
#
# Track frame offsets:
#	150
#	15030
#	29155
#	44995
#	59445
#	77997
#	91965
#	115752
#	126565
#	144095
#	161010
#	181000
#	198870
#	210595
#	229761
#
# Disc length: 3277 seconds
#
# Revision: 1
# Processed by: cddbd v1.5.1PL2 Copyright (c) Steve Scherf et al.
# Submitted via: EasyCDDAExtractor 7.1.0.1
#
DISCID=ca0ccb0f
DTITLE=Frank Sinatra - Sinatra Duets II
DYEAR=1994
DGENRE=Blues
TTITLE0=For Once In My Life (Duet With Gladys Knight And Stevie Wonder)
TTITLE1=Come Fly With Me (Duet With Luis Miguel)
TTITLE2=Bewitched (Duet With Patti LaBelle)
TTITLE3=The Best Is Yet To Come (Duet With Jon Secada)
TTITLE4=Moonlight In Vermont (Duet With Linda Ronstadt)
TTITLE5=Fly Me To The Moon (Duet With Antonio Carlos Jobim)
TTITLE6=Luck Be A Lady (Duet With Chrissie Hynde)
TTITLE7=A Foggy Day (Duet With Willie Nelson)
TTITLE8=Where Or When (Duet With Steve Lawrence And Eydie Gorme)
TTITLE9=Embraceable You (Duet With Lena Horne)
TTITLE10=Mack The Knife (Duet With Jimmy Buffett)
TTITLE11=How Do You Keep The Music Playing?_My Funny Valentine (Duet With Lorr
TTITLE11=ie Morgan)
TTITLE12=My Kind Of Town (Duet With Frank Sinatra Jr.)
TTITLE13=The House I Live In (That's America To Me) (Duet With Neil Diamond)
TTITLE14=My Way (Duet With Luciano Pavarotti)
EXTD=
EXTT0=
EXTT1=
EXTT2=
EXTT3=
EXTT4=
EXTT5=
EXTT6=
EXTT7=
EXTT8=
EXTT9=
EXTT10=
EXTT11=
EXTT12=
EXTT13=
EXTT14=
PLAYORDER=
